<svg xmlns="http://www.w3.org/2000/svg" viewBox="0 0 360 210" role="img" aria-labelledby="title desc">
  <title id="title">Knowledge Graphs thumbnail</title>
  <desc id="desc">A no-people thumbnail scene for Knowledge Graphs in Artificial Intelligence.</desc>
  <defs>
    <linearGradient id="bg" x1="0" x2="1" y1="0" y2="1">
      <stop offset="0" stop-color="#18263a"/>
      <stop offset="0.52" stop-color="#203752"/>
      <stop offset="1" stop-color="#101821"/>
    </linearGradient>
    <radialGradient id="pulse" cx="80%" cy="14%" r="82%">
      <stop offset="0" stop-color="#fb7185" stop-opacity="0.38"/>
      <stop offset="0.45" stop-color="#c084fc" stop-opacity="0.2"/>
      <stop offset="1" stop-color="#0f766e" stop-opacity="0"/>
    </radialGradient>
  </defs>
  
    <rect width="360" height="210" rx="24" fill="url(#bg)"/>
    <rect width="360" height="210" rx="24" fill="url(#pulse)"/>
    <path d="M0 134c54-22 92-4 140-26 70-32 106-70 220-48v118H0z" fill="#0f766e" opacity="0.2"/>
    <path d="M0 178c70-22 112 0 174-18 64-18 106-12 186 8v62H0z" fill="#fb7185" opacity="0.08"/>
    <circle cx="304" cy="52" r="38" fill="#facc15" opacity="0.12"/>
    <circle cx="62" cy="170" r="32" fill="#c084fc" opacity="0.1"/>
  
  <g filter="drop-shadow(0 9px 12px rgb(0 0 0 / 0.18))">
    <g transform="translate(176 120) rotate(-3) scale(1.12)"><line x1="-66" y1="-26" x2="-8" y2="-54" stroke="#fb7185" stroke-width="5" stroke-linecap="round" opacity="0.92"/><line x1="-8" y1="-54" x2="48" y2="-10" stroke="#c084fc" stroke-width="5" stroke-linecap="round" opacity="0.92"/><line x1="48" y1="-10" x2="68" y2="52" stroke="#0f766e" stroke-width="5" stroke-linecap="round" opacity="0.92"/><line x1="48" y1="-10" x2="-30" y2="38" stroke="#facc15" stroke-width="5" stroke-linecap="round" opacity="0.92"/><line x1="-66" y1="-26" x2="-30" y2="38" stroke="#fb7185" stroke-width="5" stroke-linecap="round" opacity="0.92"/><circle cx="-66" cy="-26" r="16" fill="#fb7185" opacity="0.95"/><circle cx="-8" cy="-54" r="16" fill="#c084fc" opacity="0.95"/><circle cx="48" cy="-10" r="16" fill="#0f766e" opacity="0.95"/><circle cx="68" cy="52" r="16" fill="#facc15" opacity="0.95"/><circle cx="-30" cy="38" r="16" fill="#fb7185" opacity="0.95"/><rect x="-16" y="-8" width="34" height="18" rx="6" fill="#e8edf3" opacity="0.35"/></g><g transform="translate(274 62) rotate(10) scale(0.56)"><circle cx="-66" cy="-34" r="12" fill="#fb7185" opacity="0.95"/><circle cx="-8" cy="-54" r="12" fill="#c084fc" opacity="0.95"/><circle cx="54" cy="-26" r="12" fill="#0f766e" opacity="0.95"/><circle cx="70" cy="40" r="12" fill="#facc15" opacity="0.95"/><circle cx="-26" cy="50" r="12" fill="#fb7185" opacity="0.95"/><circle cx="-74" cy="22" r="12" fill="#c084fc" opacity="0.95"/><line x1="-66" y1="-34" x2="-8" y2="-54" stroke="#e8edf3" stroke-width="3" stroke-linecap="round" opacity="0.38"/><line x1="-8" y1="-54" x2="54" y2="-26" stroke="#e8edf3" stroke-width="3" stroke-linecap="round" opacity="0.38"/><line x1="54" y1="-26" x2="70" y2="40" stroke="#e8edf3" stroke-width="3" stroke-linecap="round" opacity="0.38"/><line x1="70" y1="40" x2="-26" y2="50" stroke="#e8edf3" stroke-width="3" stroke-linecap="round" opacity="0.38"/><line x1="-26" y1="50" x2="-74" y2="22" stroke="#e8edf3" stroke-width="3" stroke-linecap="round" opacity="0.38"/><line x1="-74" y1="22" x2="-66" y2="-34" stroke="#e8edf3" stroke-width="3" stroke-linecap="round" opacity="0.38"/><line x1="-8" y1="-54" x2="-26" y2="50" stroke="#e8edf3" stroke-width="3" stroke-linecap="round" opacity="0.38"/><line x1="54" y1="-26" x2="-74" y2="22" stroke="#e8edf3" stroke-width="3" stroke-linecap="round" opacity="0.38"/></g><g transform="translate(76 148) rotate(-8) scale(0.58)"><line x1="0" y1="-62" x2="-52" y2="-8" stroke="#fb7185" stroke-width="5" stroke-linecap="round" opacity="0.92"/><line x1="0" y1="-62" x2="52" y2="-8" stroke="#fb7185" stroke-width="5" stroke-linecap="round" opacity="0.92"/><line x1="-52" y1="-8" x2="-74" y2="48" stroke="#c084fc" stroke-width="5" stroke-linecap="round" opacity="0.92"/><line x1="-52" y1="-8" x2="-28" y2="48" stroke="#c084fc" stroke-width="5" stroke-linecap="round" opacity="0.92"/><line x1="52" y1="-8" x2="28" y2="48" stroke="#0f766e" stroke-width="5" stroke-linecap="round" opacity="0.92"/><line x1="52" y1="-8" x2="74" y2="48" stroke="#0f766e" stroke-width="5" stroke-linecap="round" opacity="0.92"/><circle cx="0" cy="-62" r="10" fill="#fb7185" opacity="0.95"/><circle cx="-52" cy="-8" r="10" fill="#c084fc" opacity="0.95"/><circle cx="52" cy="-8" r="10" fill="#0f766e" opacity="0.95"/><circle cx="-74" cy="48" r="10" fill="#facc15" opacity="0.95"/><circle cx="-28" cy="48" r="10" fill="#fb7185" opacity="0.95"/><circle cx="28" cy="48" r="10" fill="#c084fc" opacity="0.95"/><circle cx="74" cy="48" r="10" fill="#0f766e" opacity="0.95"/></g>
  </g>
</svg>
