<svg xmlns="http://www.w3.org/2000/svg" viewBox="0 0 360 210" role="img" aria-labelledby="title desc">
  <title id="title">Analytics thumbnail</title>
  <desc id="desc">A no-people thumbnail scene for Analytics in Software &amp; Data.</desc>
  <defs>
    <linearGradient id="bg" x1="0" x2="1" y1="0" y2="1">
      <stop offset="0" stop-color="#18263a"/>
      <stop offset="0.52" stop-color="#203752"/>
      <stop offset="1" stop-color="#101821"/>
    </linearGradient>
    <radialGradient id="pulse" cx="80%" cy="14%" r="82%">
      <stop offset="0" stop-color="#fb7185" stop-opacity="0.38"/>
      <stop offset="0.45" stop-color="#c084fc" stop-opacity="0.2"/>
      <stop offset="1" stop-color="#0f766e" stop-opacity="0"/>
    </radialGradient>
  </defs>
  
    <rect width="360" height="210" rx="24" fill="url(#bg)"/>
    <rect width="360" height="210" rx="24" fill="url(#pulse)"/>
    <path d="M0 156c54-22 92-4 140-26 70-32 106-70 220-48v118H0z" fill="#0f766e" opacity="0.2"/>
    <path d="M0 200c70-22 112 0 174-18 64-18 106-12 186 8v62H0z" fill="#fb7185" opacity="0.08"/>
    <circle cx="284" cy="56" r="42" fill="#facc15" opacity="0.12"/>
    <circle cx="66" cy="174" r="32" fill="#c084fc" opacity="0.1"/>
  
  <g filter="drop-shadow(0 9px 12px rgb(0 0 0 / 0.18))">
    <g transform="translate(146 118) rotate(-4) scale(1)"><rect x="-72" y="-56" width="144" height="112" rx="14" fill="#0f766e" opacity="0.84"/><rect x="-48" y="6" width="18" height="34" rx="5" fill="#fb7185" opacity="1"/><rect x="-12" y="-24" width="18" height="64" rx="5" fill="#c084fc" opacity="1"/><rect x="24" y="-42" width="18" height="82" rx="5" fill="#facc15" opacity="1"/><path d="M-52-28c30 28 58-18 96 2" fill="none" stroke="#e8edf3" stroke-width="4" stroke-linecap="round" stroke-linejoin="round" opacity="0.55"/></g><g transform="translate(262 82) rotate(8) scale(0.74)"><line x1="-64" y1="48" x2="64" y2="48" stroke="#8fa3ba" stroke-width="3" stroke-linecap="round" opacity="0.5"/><line x1="-64" y1="48" x2="-64" y2="-48" stroke="#8fa3ba" stroke-width="3" stroke-linecap="round" opacity="0.5"/><circle cx="-40" cy="18" r="8" fill="#fb7185" opacity="0.95"/><circle cx="-20" cy="-14" r="8" fill="#c084fc" opacity="0.95"/><circle cx="8" cy="6" r="8" fill="#0f766e" opacity="0.95"/><circle cx="24" cy="-32" r="8" fill="#facc15" opacity="0.95"/><circle cx="46" cy="-10" r="8" fill="#fb7185" opacity="0.95"/><circle cx="54" cy="26" r="8" fill="#c084fc" opacity="0.95"/><path d="M-44 26c28-36 60-24 94-62" fill="none" stroke="#e8edf3" stroke-width="4" stroke-linecap="round" stroke-linejoin="round" opacity="0.5"/></g><g transform="translate(66 70) rotate(0) scale(0.48)"><rect x="-72" y="-48" width="144" height="96" rx="13" fill="#0f766e" opacity="0.84"/><path d="M-52 26l32-28 26 18 42-50" fill="none" stroke="#c084fc" stroke-width="8" stroke-linecap="round" stroke-linejoin="round" opacity="1"/><path d="M30-34h22v22" fill="none" stroke="#c084fc" stroke-width="7" stroke-linecap="round" stroke-linejoin="round" opacity="1"/><rect x="-50" y="14" width="16" height="24" rx="4" fill="#fb7185" opacity="1"/><rect x="-18" y="2" width="16" height="36" rx="4" fill="#facc15" opacity="1"/><rect x="14" y="-14" width="16" height="52" rx="4" fill="#fb7185" opacity="1"/></g>
  </g>
</svg>
