<svg xmlns="http://www.w3.org/2000/svg" viewBox="0 0 360 210" role="img" aria-labelledby="title desc">
  <title id="title">Drones thumbnail</title>
  <desc id="desc">A no-people thumbnail scene for Drones in Engineering &amp; Robotics.</desc>
  <defs>
    <linearGradient id="bg" x1="0" x2="1" y1="0" y2="1">
      <stop offset="0" stop-color="#18263a"/>
      <stop offset="0.52" stop-color="#203752"/>
      <stop offset="1" stop-color="#101821"/>
    </linearGradient>
    <radialGradient id="pulse" cx="80%" cy="14%" r="82%">
      <stop offset="0" stop-color="#55d3c4" stop-opacity="0.38"/>
      <stop offset="0.45" stop-color="#d4a94b" stop-opacity="0.2"/>
      <stop offset="1" stop-color="#315a9f" stop-opacity="0"/>
    </radialGradient>
  </defs>
  
    <rect width="360" height="210" rx="24" fill="url(#bg)"/>
    <rect width="360" height="210" rx="24" fill="url(#pulse)"/>
    <path d="M0 138c54-22 92-4 140-26 70-32 106-70 220-48v118H0z" fill="#315a9f" opacity="0.2"/>
    <path d="M0 182c70-22 112 0 174-18 64-18 106-12 186 8v62H0z" fill="#55d3c4" opacity="0.08"/>
    <circle cx="296" cy="46" r="42" fill="#ff8c73" opacity="0.12"/>
    <circle cx="56" cy="174" r="24" fill="#d4a94b" opacity="0.1"/>
  
  <g filter="drop-shadow(0 9px 12px rgb(0 0 0 / 0.18))">
    <g transform="translate(146 118) rotate(-4) scale(1)"><rect x="-26" y="-20" width="52" height="40" rx="10" fill="#315a9f" opacity="1"/><line x1="-26" y1="-10" x2="-70" y2="-42" stroke="#55d3c4" stroke-width="5" stroke-linecap="round" opacity="0.92"/><line x1="26" y1="-10" x2="70" y2="-42" stroke="#d4a94b" stroke-width="5" stroke-linecap="round" opacity="0.92"/><line x1="-26" y1="10" x2="-70" y2="42" stroke="#ff8c73" stroke-width="5" stroke-linecap="round" opacity="0.92"/><line x1="26" y1="10" x2="70" y2="42" stroke="#55d3c4" stroke-width="5" stroke-linecap="round" opacity="0.92"/><circle cx="-76" cy="-46" r="18" fill="#55d3c4" opacity="0.72"/><circle cx="-76" cy="-46" r="6" fill="#e8edf3" opacity="0.75"/><circle cx="76" cy="-46" r="18" fill="#d4a94b" opacity="0.72"/><circle cx="76" cy="-46" r="6" fill="#e8edf3" opacity="0.75"/><circle cx="-76" cy="46" r="18" fill="#ff8c73" opacity="0.72"/><circle cx="-76" cy="46" r="6" fill="#e8edf3" opacity="0.75"/><circle cx="76" cy="46" r="18" fill="#315a9f" opacity="0.72"/><circle cx="76" cy="46" r="6" fill="#e8edf3" opacity="0.75"/></g><g transform="translate(262 82) rotate(8) scale(0.74)"><rect x="-26" y="-22" width="52" height="44" rx="8" fill="#315a9f" opacity="1"/><path d="M-26-16l-50-30M26 16l50 30" fill="none" stroke="#55d3c4" stroke-width="8" stroke-linecap="round" stroke-linejoin="round" opacity="1"/><path d="M-74-54l-22 34M74 54l22-34" fill="none" stroke="#d4a94b" stroke-width="7" stroke-linecap="round" stroke-linejoin="round" opacity="1"/><path d="M-44 56c28-30 60-42 102-40" fill="none" stroke="#ff8c73" stroke-width="5" stroke-linecap="round" stroke-linejoin="round" opacity="1"/><circle cx="60" cy="16" r="8" fill="#e8edf3" opacity="0.68"/></g><g transform="translate(66 70) rotate(0) scale(0.48)"><path d="M-72 62c22-68 62-108 142-122" fill="none" stroke="#315a9f" stroke-width="34" stroke-linecap="round" stroke-linejoin="round" opacity="0.74"/><path d="M-72 62c22-68 62-108 142-122" fill="none" stroke="#e8edf3" stroke-width="4" stroke-linecap="round" stroke-linejoin="round" opacity="0.55"/><rect x="-34" y="8" width="60" height="30" rx="9" fill="#55d3c4" opacity="1"/><circle cx="-18" cy="40" r="7" fill="#0b1117" opacity="0.55"/><circle cx="10" cy="40" r="7" fill="#0b1117" opacity="0.55"/><circle cx="72" cy="-58" r="11" fill="#ff8c73" opacity="1"/></g>
  </g>
</svg>
