<svg xmlns="http://www.w3.org/2000/svg" viewBox="0 0 360 210" role="img" aria-labelledby="title desc">
  <title id="title">Agriculture thumbnail</title>
  <desc id="desc">A no-people thumbnail scene for Agriculture in Energy &amp; Environment.</desc>
  <defs>
    <linearGradient id="bg" x1="0" x2="1" y1="0" y2="1">
      <stop offset="0" stop-color="#18263a"/>
      <stop offset="0.52" stop-color="#203752"/>
      <stop offset="1" stop-color="#101821"/>
    </linearGradient>
    <radialGradient id="pulse" cx="80%" cy="14%" r="82%">
      <stop offset="0" stop-color="#6ee7b7" stop-opacity="0.38"/>
      <stop offset="0.45" stop-color="#60a5fa" stop-opacity="0.2"/>
      <stop offset="1" stop-color="#f59e0b" stop-opacity="0"/>
    </radialGradient>
  </defs>
  
    <rect width="360" height="210" rx="24" fill="url(#bg)"/>
    <rect width="360" height="210" rx="24" fill="url(#pulse)"/>
    <path d="M0 141c54-22 92-4 140-26 70-32 106-70 220-48v118H0z" fill="#f59e0b" opacity="0.2"/>
    <path d="M0 185c70-22 112 0 174-18 64-18 106-12 186 8v62H0z" fill="#6ee7b7" opacity="0.08"/>
    <circle cx="307" cy="49" r="41" fill="#fb7185" opacity="0.12"/>
    <circle cx="59" cy="173" r="29" fill="#60a5fa" opacity="0.1"/>
  
  <g filter="drop-shadow(0 9px 12px rgb(0 0 0 / 0.18))">
    <g transform="translate(88 96) rotate(-12) scale(0.72)"><path d="M-76 60c30-54 56-84 76-114M-38 64c22-50 44-78 64-110M0 66c15-46 34-74 62-102M38 64c10-34 26-58 48-78" fill="none" stroke="#60a5fa" stroke-width="7" stroke-linecap="round" stroke-linejoin="round" opacity="1"/><path d="M-80 66h160" fill="none" stroke="#f59e0b" stroke-width="10" stroke-linecap="round" stroke-linejoin="round" opacity="1"/><circle cx="-44" cy="-20" r="8" fill="#6ee7b7" opacity="1"/><circle cx="30" cy="-30" r="8" fill="#fb7185" opacity="1"/></g><g transform="translate(186 118) rotate(0) scale(1.02)"><path d="M-60 44c10-76 80-100 126-86-4 74-66 108-126 86z" fill="#6ee7b7" stroke="none" stroke-width="5" stroke-linecap="round" stroke-linejoin="round" opacity="1"/><path d="M-46 34c34-26 70-44 104-66" fill="none" stroke="#0b1117" stroke-width="5" stroke-linecap="round" stroke-linejoin="round" opacity="0.36"/><path d="M-10 54v-70" fill="none" stroke="#60a5fa" stroke-width="7" stroke-linecap="round" stroke-linejoin="round" opacity="1"/><circle cx="56" cy="-44" r="9" fill="#fb7185" opacity="1"/></g><g transform="translate(286 82) rotate(12) scale(0.66)"><rect x="-26" y="-22" width="52" height="44" rx="8" fill="#f59e0b" opacity="1"/><path d="M-26-16l-50-30M26 16l50 30" fill="none" stroke="#6ee7b7" stroke-width="8" stroke-linecap="round" stroke-linejoin="round" opacity="1"/><path d="M-74-54l-22 34M74 54l22-34" fill="none" stroke="#60a5fa" stroke-width="7" stroke-linecap="round" stroke-linejoin="round" opacity="1"/><path d="M-44 56c28-30 60-42 102-40" fill="none" stroke="#fb7185" stroke-width="5" stroke-linecap="round" stroke-linejoin="round" opacity="1"/><circle cx="60" cy="16" r="8" fill="#e8edf3" opacity="0.68"/></g>
  </g>
</svg>
