<svg xmlns="http://www.w3.org/2000/svg" viewBox="0 0 360 210" role="img" aria-labelledby="title desc">
  <title id="title">Drug Discovery thumbnail</title>
  <desc id="desc">A no-people thumbnail scene for Drug Discovery in Life Sciences &amp; Health.</desc>
  <defs>
    <linearGradient id="bg" x1="0" x2="1" y1="0" y2="1">
      <stop offset="0" stop-color="#18263a"/>
      <stop offset="0.52" stop-color="#203752"/>
      <stop offset="1" stop-color="#101821"/>
    </linearGradient>
    <radialGradient id="pulse" cx="80%" cy="14%" r="82%">
      <stop offset="0" stop-color="#7be0b1" stop-opacity="0.38"/>
      <stop offset="0.45" stop-color="#f2c14e" stop-opacity="0.2"/>
      <stop offset="1" stop-color="#264f73" stop-opacity="0"/>
    </radialGradient>
  </defs>
  
    <rect width="360" height="210" rx="24" fill="url(#bg)"/>
    <rect width="360" height="210" rx="24" fill="url(#pulse)"/>
    <path d="M0 136c54-22 92-4 140-26 70-32 106-70 220-48v118H0z" fill="#264f73" opacity="0.2"/>
    <path d="M0 180c70-22 112 0 174-18 64-18 106-12 186 8v62H0z" fill="#7be0b1" opacity="0.08"/>
    <circle cx="304" cy="52" r="38" fill="#70a1ff" opacity="0.12"/>
    <circle cx="62" cy="158" r="26" fill="#f2c14e" opacity="0.1"/>
  
  <g filter="drop-shadow(0 9px 12px rgb(0 0 0 / 0.18))">
    <g transform="translate(176 120) rotate(-3) scale(1.12)"><line x1="-56" y1="-32" x2="0" y2="2" stroke="#7be0b1" stroke-width="7" stroke-linecap="round" opacity="0.92"/><line x1="0" y1="2" x2="62" y2="-28" stroke="#f2c14e" stroke-width="7" stroke-linecap="round" opacity="0.92"/><line x1="0" y1="2" x2="34" y2="58" stroke="#264f73" stroke-width="7" stroke-linecap="round" opacity="0.92"/><line x1="0" y1="2" x2="-54" y2="52" stroke="#70a1ff" stroke-width="7" stroke-linecap="round" opacity="0.92"/><circle cx="-56" cy="-32" r="18" fill="#7be0b1" opacity="0.95"/><circle cx="0" cy="2" r="18" fill="#f2c14e" opacity="0.95"/><circle cx="62" cy="-28" r="18" fill="#264f73" opacity="0.95"/><circle cx="34" cy="58" r="18" fill="#70a1ff" opacity="0.95"/><circle cx="-54" cy="52" r="18" fill="#7be0b1" opacity="0.95"/><path d="M-20-62h40l16 20-16 20h-40l-16-20z" fill="none" stroke="#e8edf3" stroke-width="4" stroke-linecap="round" stroke-linejoin="round" opacity="0.45"/></g><g transform="translate(274 62) rotate(10) scale(0.56)"><path d="M-22-64h44M-10-64v40l-46 74c-8 13 1 28 16 28h80c15 0 24-15 16-28L10-24v-40" fill="#e8edf3" stroke="#7be0b1" stroke-width="5" stroke-linecap="round" stroke-linejoin="round" opacity="0.9"/><path d="M-32 38c20-15 44 14 72-2" fill="none" stroke="#f2c14e" stroke-width="7" stroke-linecap="round" stroke-linejoin="round" opacity="1"/><circle cx="-10" cy="18" r="7" fill="#70a1ff" opacity="1"/><circle cx="26" cy="50" r="5" fill="#264f73" opacity="1"/></g><g transform="translate(76 148) rotate(-8) scale(0.58)"><path d="M-70-16c22-52 54 16 76-24s48-12 38 22 42 22 30 62-66 14-84 0-64 18-60-60z" fill="none" stroke="#7be0b1" stroke-width="9" stroke-linecap="round" stroke-linejoin="round" opacity="1"/><circle cx="-70" cy="-16" r="9" fill="#7be0b1" opacity="0.95"/><circle cx="6" cy="-40" r="9" fill="#f2c14e" opacity="0.95"/><circle cx="44" cy="-18" r="9" fill="#264f73" opacity="0.95"/><circle cx="74" cy="44" r="9" fill="#70a1ff" opacity="0.95"/><circle cx="-10" cy="44" r="9" fill="#7be0b1" opacity="0.95"/></g>
  </g>
</svg>
